<svg xmlns="http://www.w3.org/2000/svg" viewBox="0 0 24 24" fill="url(#gradient)">
  <defs>
    <radialGradient id="gradient" cx="30%" cy="107%" r="150%">
      <stop offset="0%" style="stop-color:#fdf497; stop-opacity:1" />
      <stop offset="5%" style="stop-color:#fdf497; stop-opacity:1" />
      <stop offset="45%" style="stop-color:#fd5949; stop-opacity:1" />
      <stop offset="60%" style="stop-color:#d6249f; stop-opacity:1" />
      <stop offset="90%" style="stop-color:#285AEB; stop-opacity:1" />
    </radialGradient>
  </defs>
  <path d="M16.5 4.5l-3.09 3.09c-.35-.09-.71-.14-1.09-.14-2.49 0-4.5 2.01-4.5 4.5s2.01 4.5 4.5 4.5 4.5-2.01 4.5-4.5c0-.39-.05-.76-.14-1.11L19.5 7.5V4.5h-3zM12 15c-1.66 0-3-1.34-3-3s1.34-3 3-3 3 1.34 3 3-1.34 3-3 3zM2 2v20h20V2H2zm18 18H4V4h16v16z"/>
</svg>